<svg width="320" height="321" viewBox="0 0 320 321" fill="none" xmlns="http://www.w3.org/2000/svg">
<g clip-path="url(#clip0_3_9)">
<path d="M160 320.5C248.366 320.5 320 248.866 320 160.5C320 72.1344 248.366 0.5 160 0.5C71.6344 0.5 0 72.1344 0 160.5C0 248.866 71.6344 320.5 160 320.5Z" fill="#245D90"/>
<path d="M221.02 221.25L236.5 239.61C232.3 244.77 227.17 248.7 221.11 251.4C215.05 254.1 208.42 255.45 201.22 255.45C194.26 255.45 187.96 254.55 182.32 252.75C176.68 250.95 171.01 247.98 165.31 243.84C159.61 239.7 153.22 233.91 146.14 226.47C135.22 224.67 125.5 220.77 116.98 214.77C108.46 208.77 101.83 201.21 97.09 192.09C92.35 182.97 89.98 172.95 89.98 162.03C89.98 149.55 93.01 138.33 99.07 128.37C105.13 118.41 113.47 110.61 124.09 104.97C134.71 99.33 146.68 96.51 160 96.51C173.32 96.51 185.29 99.33 195.91 104.97C206.53 110.61 214.87 118.41 220.93 128.37C226.99 138.33 230.02 149.55 230.02 162.03C230.02 176.19 226.15 188.7 218.41 199.56C210.67 210.42 200.26 218.19 187.18 222.87C189.58 225.51 191.95 227.37 194.29 228.45C196.63 229.53 199.18 230.07 201.94 230.07C209.02 230.07 215.38 227.13 221.02 221.25ZM125.98 162.03C125.98 169.11 127.48 175.38 130.48 180.84C133.48 186.3 137.56 190.53 142.72 193.53C147.88 196.53 153.64 198.03 160 198.03C166.36 198.03 172.12 196.53 177.28 193.53C182.44 190.53 186.52 186.3 189.52 180.84C192.52 175.38 194.02 169.11 194.02 162.03C194.02 154.95 192.52 148.68 189.52 143.22C186.52 137.76 182.44 133.53 177.28 130.53C172.12 127.53 166.36 126.03 160 126.03C153.64 126.03 147.88 127.53 142.72 130.53C137.56 133.53 133.48 137.76 130.48 143.22C127.48 148.68 125.98 154.95 125.98 162.03Z" fill="white"/>
</g>
<defs>
<clipPath id="clip0_3_9">
<rect width="320" height="320" fill="white" transform="translate(0 0.5)"/>
</clipPath>
</defs>
</svg>
